<?xml version="1.0" encoding="UTF-8" standalone="no"?>
<svg width="114px" height="120px" viewBox="0 0 114 120" version="1.1" xmlns="http://www.w3.org/2000/svg" xmlns:xlink="http://www.w3.org/1999/xlink">
    <!-- Generator: Sketch 42 (36781) - http://www.bohemiancoding.com/sketch -->
    <title>Page 1</title>
    <desc>Created with Sketch.</desc>
    <defs>
        <polygon id="path-1" points="0 0.316135385 0 113.942105 113.98698 113.942105 113.98698 0.316135385"></polygon>
    </defs>
    <g id="Page-1" stroke="none" stroke-width="1" fill="none" fill-rule="evenodd">
        <g id="Blocos" transform="translate(-250.000000, 0.000000)">
            <g id="Page-1" transform="translate(250.000000, 0.000000)">
                <polygon id="Fill-1" fill-opacity="0.7" fill="#ED2223" points="105.310631 114.172283 6.81051171 119.683791 1.28148756 21.4960985 99.7816065 15.9842215"></polygon>
                <polygon id="Fill-3" fill-opacity="0.7" fill="#ED2223" points="3.23251783 114.835938 107.525018 114.835938 107.525018 10.8738462 3.23251783 10.8738462"></polygon>
                <g id="Group-7" opacity="0.7" transform="translate(0.000000, 0.053169)">
                    <mask id="mask-2" fill="white">
                        <use xlink:href="#path-1"></use>
                    </mask>
                    <g id="Clip-6"></g>
                    <polygon id="Fill-5" fill="#ED2223" mask="url(#mask-2)" points="105.910685 113.942105 -0.000111121273 105.891397 8.07618301 0.316135385 113.98698 8.36684308"></polygon>
                </g>
                <path d="M14.8525434,39.52272 L14.8232815,41.4844431 C14.8232815,42.1283815 14.8721749,42.5969354 14.970332,42.8897354 C15.3811103,42.9480738 15.7529962,42.9776123 16.08636,42.9776123 C17.2805433,42.9776123 18.0439464,42.6552738 18.3773102,42.0113354 C18.6314075,41.5427815 18.7588266,41.1724431 18.7588266,40.8988431 C18.7588266,40.6256123 18.7195637,40.4110892 18.6414085,40.2545354 C18.3476779,39.6888738 17.9168978,39.3469662 17.349068,39.22992 C16.7812383,39.1128738 16.2919343,39.0545354 15.8804152,39.0545354 C15.4696369,39.0545354 15.1266426,39.1228431 14.8525434,39.2590892 L14.8525434,39.52272 Z M15.0873797,51.0873969 L16.2037781,51.1165662 C16.9868127,51.1165662 17.5109347,51.0338585 17.7750329,50.8677046 C18.0395016,50.7022892 18.2495208,50.5309662 18.4065722,50.3552123 C18.621777,50.0627815 18.7295647,49.7308431 18.7295647,49.3597662 C18.7295647,48.9894277 18.651039,48.5987815 18.494358,48.1889354 C18.2202588,47.6616738 17.7994796,47.3301046 17.2316499,47.1934892 C16.9379193,47.1155815 16.5071392,47.0616738 15.9396799,47.0325046 C15.3711094,47.0029662 15.0384864,46.9789662 14.9406997,46.9590277 C14.7058634,47.8769354 14.5880748,48.6818585 14.5880748,49.3745354 C14.5880748,50.0675815 14.7351253,50.6288123 15.0288559,51.0578585 L15.0873797,51.0873969 Z M10.7410563,48.8037046 L10.7995802,38.8492431 C10.7995802,37.1710892 10.7895793,35.8629046 10.7703183,34.9261662 L10.7995802,34.8969969 C12.3656494,34.4675815 13.6339135,34.2526892 14.602891,34.2526892 C15.5722389,34.2526892 16.4630611,34.3065969 17.275728,34.4136738 C18.0880245,34.5214892 18.9006914,34.7799508 19.7133583,35.1897969 C20.5256548,35.5996431 21.1868264,36.2435815 21.6961322,37.1219815 C22.2050677,38.0003815 22.4595354,39.1128738 22.4595354,40.4594585 C22.4595354,41.8064123 21.9798619,43.2803815 21.0205149,44.8806277 C20.9223578,45.0560123 20.9956978,45.2904738 21.2409054,45.5832738 C21.4853722,45.8760738 21.6416828,46.0662277 21.7109484,46.1541046 C21.7791028,46.2419815 21.9354134,46.4517046 22.180621,46.7836431 C22.4250878,47.1155815 22.5773239,47.3544738 22.6358478,47.5006892 C22.6943717,47.6472738 22.7973441,47.8813662 22.9440241,48.2037046 C23.0910746,48.5256738 23.1792308,48.8088738 23.2084928,49.0525662 C23.2377547,49.2969969 23.2525709,49.5846277 23.2525709,49.9161969 C23.2525709,50.2485046 23.2084928,50.6679508 23.1203366,51.1752738 C23.0325508,51.6829662 22.8414222,52.1954585 22.5476916,52.7123815 C22.2543314,53.2296738 21.9257829,53.6446892 21.5638979,53.9566892 C21.2012722,54.2690585 20.7364149,54.52272 20.1689556,54.7176738 C19.0914496,55.12752 17.6427986,55.3224738 15.8218913,55.3032738 C15.3711094,55.3032738 14.6273377,55.2837046 13.5898354,55.2445662 L11.5044595,55.12752 C11.1710957,55.12752 10.9558908,55.10832 10.8581041,55.0691815 C10.7795784,53.7617354 10.7410563,51.6729969 10.7410563,48.8037046 L10.7410563,48.8037046 Z" id="Fill-8" fill="#FCD413"></path>
                <path d="M36.9977168,52.2290954 L37.085873,54.2199877 C37.085873,54.4736492 37.0514254,54.6885415 36.9829006,54.8642954 C36.9143758,55.03968 36.845851,55.1378954 36.7773262,55.1570954 C36.708431,55.1766646 36.6058291,55.1862646 36.4691499,55.1862646 L36.2339432,55.1862646 L35.7935326,55.1862646 L29.8607678,55.2741415 C28.4698999,55.2741415 26.7275183,55.2545723 24.6328823,55.2154338 L24.6328823,54.6885415 C24.7891929,48.6966646 24.8677186,45.31968 24.8677186,44.5586954 L24.7206681,34.6042338 C25.0732929,34.42848 25.8074342,34.3406031 26.9238325,34.3406031 C28.0398605,34.3406031 28.8714181,34.4576492 29.4199867,34.6921108 C29.3807239,35.5313723 29.3614629,36.7025723 29.3614629,38.2053415 L29.4496191,48.9499569 L29.4496191,50.5310031 L29.4496191,50.5605415 C29.5670372,50.5214031 29.840766,50.5018338 30.2719165,50.5018338 L36.6747243,50.7359262 L37.0562406,50.7359262 L36.9977168,52.2290954 Z" id="Fill-10" fill="#FCD413"></path>
                <path d="M46.7486455,47.9253046 L46.8071694,46.4029662 L46.8071694,44.9976738 L46.7486455,43.0067815 C46.6701198,42.2653662 46.6312274,41.7089354 46.6312274,41.3378585 C46.5326998,40.1278892 46.0241348,39.2985969 45.1040507,38.8492431 C44.8295811,38.7321969 44.5651125,38.6738585 44.3110152,38.6738585 L42.8131004,39.2590892 C42.1271118,39.80592 41.6678105,40.4793969 41.4326038,41.27952 C41.2362896,42.2358277 41.1388732,43.1485662 41.1388732,44.0169969 C41.1388732,44.8854277 41.1485037,45.4953969 41.1685056,45.8469046 C41.3048143,48.0131815 41.4914981,49.4675815 41.7263344,50.2089969 C42.1374831,51.0681969 42.9201472,51.4972431 44.0761789,51.4972431 C44.9177373,51.4972431 45.6126157,51.1948431 46.1611844,50.5896738 C46.474176,50.1606277 46.6408579,49.8530585 46.6604893,49.6673354 C46.6797503,49.4819815 46.6945665,49.22352 46.7045674,48.8915815 C46.7141979,48.5600123 46.7286437,48.2376738 46.7486455,47.9253046 M50.5078782,41.4844431 L50.4200924,45.5245662 C50.4200924,46.85232 50.39046,47.8669662 50.3319362,48.5692431 L50.24378,49.53552 C50.1456228,51.1361354 49.7741074,52.45392 49.127752,53.4881354 C48.5402908,54.2886277 47.5316801,54.8838277 46.1026605,55.2741046 C45.358148,55.4886277 44.6925316,55.5960738 44.1054408,55.5960738 C43.5179797,55.5960738 42.9057015,55.5713354 42.2697174,55.5229662 C41.6329925,55.4738585 40.9870075,55.3032738 40.331392,55.0104738 C39.6750357,54.7176738 39.1901765,54.2199508 38.8771849,53.5173046 C38.4464048,52.7758892 38.2115685,51.6925662 38.1723057,50.2673354 C38.0156247,47.2813662 37.9374694,45.4662277 37.9374694,44.82192 C37.9374694,43.2803815 37.9667313,42.0309046 38.0256256,41.0745969 C38.064518,38.8887508 38.5838248,37.2198277 39.5824346,36.0681969 C39.8172709,35.8337354 40.0421063,35.6583508 40.2576815,35.5409354 C41.393341,34.9752738 42.6756804,34.6920738 44.1054408,34.6920738 C45.984872,34.6920738 47.5316801,35.1510277 48.7458652,36.0681969 C49.3133245,36.5758892 49.7148427,37.1710892 49.9500494,37.8537969 C50.1456228,38.3031508 50.2874877,38.8492431 50.3760143,39.4935508 C50.4638001,40.1374892 50.5078782,40.8013662 50.5078782,41.4844431" id="Fill-12" fill="#FCD413"></path>
                <path d="M61.8742139,46.8420923 L63.1958163,46.8420923 C63.9984823,46.8420923 64.5174186,46.8908308 64.7526253,46.9883077 C64.9478283,47.7304615 65.0463559,48.4331077 65.0463559,49.0962462 C65.0463559,51.1853538 64.2625805,52.8731077 62.6965113,54.1613538 C61.6393776,55.0397538 60.4151916,55.4883692 59.0250645,55.5083077 C58.6139158,55.5666462 58.1631338,55.5961846 57.6742002,55.5961846 C57.1845258,55.5961846 56.5678027,55.5179077 55.8236606,55.3617231 C55.0795185,55.2051692 54.340562,54.8008615 53.6064208,54.1469538 C52.8719092,53.4930462 52.4555748,52.6489846 52.3577881,51.6144 C52.2796328,49.9554462 52.2407404,48.0180923 52.2407404,45.8027077 L52.2407404,40.8841846 L52.2407404,38.8201846 C52.2407404,38.5081846 52.3577881,38.0688 52.5929948,37.5027692 C52.9456196,36.4681846 53.483817,35.6193231 54.2083277,34.9554462 C54.599845,34.6626462 55.0991499,34.4385231 55.7062425,34.2819692 C56.4500142,34.0478769 57.0867391,33.9308308 57.6153059,33.9308308 C59.2795322,33.9308308 60.591504,34.2336 61.550851,34.8384 C63.939588,36.3607385 65.1341417,38.2836923 65.1341417,40.6057846 C65.1341417,41.3283692 65.0167235,42.0801231 64.7818872,42.8603077 C64.3311053,42.9581538 63.7632756,43.0068923 63.0783981,43.0068923 C62.3927799,43.0068923 61.5312196,42.9190154 60.4937173,42.7432615 C60.454084,42.5287385 60.4248221,42.1971692 60.4055611,41.7478154 C60.3855593,41.2992 60.3562973,40.9380923 60.3174049,40.6644923 C60.1999867,39.8448 59.9255172,39.3083077 59.4947371,39.0542769 C59.2602712,38.9180308 59.034695,38.8493538 58.8194901,38.8493538 C58.6039149,38.8493538 58.2857376,38.8836923 57.8649584,38.952 C57.4438088,39.0203077 57.1456333,39.1421538 56.9693209,39.3179077 C56.9104267,39.3570462 56.8615333,39.4545231 56.8222704,39.6107077 C56.6463284,40.0788923 56.5578018,41.3867077 56.5578018,43.5337846 C56.5578018,45.6812308 56.5970647,47.184 56.6755904,48.0424615 C56.831901,49.5648 57.3901001,50.4627692 58.3494471,50.736 C58.4672357,50.7555692 58.5746529,50.7651692 58.6724396,50.7651692 C59.9840411,50.7651692 60.6700297,49.8971077 60.7285536,48.1595077 C60.7478146,47.4768 60.7770766,47.0278154 60.8167098,46.8129231 C60.9930222,46.8324923 61.3456471,46.8420923 61.8742139,46.8420923" id="Fill-14" fill="#FCD413"></path>
                <path d="M75.266809,47.9253046 L75.3253329,46.4029662 L75.3253329,44.9976738 L75.266809,43.0067815 C75.1882833,42.2653662 75.1493909,41.7089354 75.1493909,41.3378585 C75.0508634,40.1278892 74.5422983,39.2985969 73.6222142,38.8492431 C73.3477446,38.7321969 73.083276,38.6738585 72.8291787,38.6738585 L71.3312639,39.2590892 C70.6452753,39.80592 70.185974,40.4793969 69.9507673,41.27952 C69.7544531,42.2358277 69.6570368,43.1485662 69.6570368,44.0169969 C69.6570368,44.8854277 69.6666673,45.4953969 69.6866691,45.8469046 C69.8229779,48.0131815 70.0096616,49.4675815 70.2444979,50.2089969 C70.6556466,51.0681969 71.4383108,51.4972431 72.5943424,51.4972431 C73.4359009,51.4972431 74.1307792,51.1948431 74.6793479,50.5896738 C74.9923395,50.1606277 75.1590214,49.8530585 75.1786528,49.6673354 C75.1979138,49.4819815 75.21273,49.22352 75.2227309,48.8915815 C75.2323614,48.5600123 75.2468072,48.2376738 75.266809,47.9253046 M79.0260417,41.4844431 L78.9382559,45.5245662 C78.9382559,46.85232 78.9086236,47.8669662 78.8500997,48.5692431 L78.7619435,49.53552 C78.6637864,51.1361354 78.2922709,52.45392 77.6459155,53.4881354 C77.0584544,54.2886277 76.0498436,54.8838277 74.620824,55.2741046 C73.8763115,55.4886277 73.2106951,55.5960738 72.6236044,55.5960738 C72.0361432,55.5960738 71.423865,55.5713354 70.7878809,55.5229662 C70.151156,55.4738585 69.505171,55.3032738 68.8495555,55.0104738 C68.1931992,54.7176738 67.70834,54.2199508 67.3953485,53.5173046 C66.9645683,52.7758892 66.729732,51.6925662 66.6904692,50.2673354 C66.5337882,47.2813662 66.4556329,45.4662277 66.4556329,44.82192 C66.4556329,43.2803815 66.4848948,42.0309046 66.5437891,41.0745969 C66.5826815,38.8887508 67.1019883,37.2198277 68.1005981,36.0681969 C68.3354344,35.8337354 68.5602698,35.6583508 68.7758451,35.5409354 C69.9115045,34.9752738 71.193844,34.6920738 72.6236044,34.6920738 C74.5030355,34.6920738 76.0498436,35.1510277 77.2640287,36.0681969 C77.831488,36.5758892 78.2330062,37.1710892 78.4682129,37.8537969 C78.6637864,38.3031508 78.8056512,38.8492431 78.8941778,39.4935508 C78.9819636,40.1374892 79.0260417,40.8013662 79.0260417,41.4844431" id="Fill-16" fill="#FCD413"></path>
                <path d="M81.4341138,49.0379446 L84.6647796,49.1258215 C84.7233035,49.9850215 85.1833455,50.5602831 86.0452762,50.8530831 C86.3390068,50.9701292 86.6716298,51.0288369 87.043886,51.0288369 C87.4157719,51.0288369 87.7780273,50.8778215 88.1302817,50.5750523 C88.4829065,50.2726523 88.659219,49.8676062 88.659219,49.3599138 C88.659219,48.7159754 88.5021676,48.2378215 88.1895464,47.9254523 C87.7972883,47.5351754 87.4350329,47.2767138 87.1027803,47.1496985 C86.7694165,47.0226831 86.4660554,46.9255754 86.1919563,46.8568985 C85.9174867,46.7885908 85.7319142,46.7446523 85.6341275,46.7250831 C84.9096168,46.5888369 84.5080986,46.51056 84.4299433,46.4906215 C83.744325,46.3543754 83.0787086,46.0224369 82.4327236,45.4955446 C81.1207518,44.2464369 80.4647659,42.7432985 80.4647659,40.9864985 C80.4647659,39.5620062 80.9740717,38.2250215 81.9919426,36.9755446 C82.657559,36.1754215 83.4505945,35.5805908 84.371049,35.1895754 C85.2126075,34.8775754 86.1234315,34.7213908 87.1027803,34.7213908 C88.4729056,34.7213908 89.7359841,34.9846523 90.8912749,35.5115446 C91.8898848,36.0196062 92.6243964,36.7610215 93.094069,37.7368985 C93.4074309,38.3808369 93.5641119,39.0103754 93.5641119,39.6251446 C93.5641119,40.2402831 93.5152186,40.8015138 93.4174319,41.3088369 L93.3877995,41.3088369 C92.5258688,41.4454523 91.7235733,41.51376 90.9794311,41.51376 C90.235289,41.51376 89.5696726,41.4358523 88.9825819,41.2796677 C89.0211039,41.1430523 89.0411057,41.0060677 89.0411057,40.8694523 C89.0411057,40.4012677 88.8207152,40.0109908 88.3799342,39.6986215 C87.9398939,39.3866215 87.562452,39.2300677 87.2494604,39.2300677 C85.8197,39.2300677 85.173715,39.9327138 85.311135,41.3380062 C85.5459713,42.0214523 86.1819554,42.4408985 87.2201985,42.5970831 C88.2577007,42.7141292 89.2174181,43.0460677 90.0982394,43.59216 C90.9794311,44.1389908 91.7135723,44.8320369 92.3010335,45.6709292 C93.0451756,46.6276062 93.4174319,47.7013292 93.4174319,48.8917292 C93.4174319,50.0824985 93.2014862,51.1071138 92.7710765,51.9655754 C92.3202945,53.1175754 91.5965246,53.9668062 90.5975444,54.5128985 C89.5989345,55.05936 88.5125389,55.3325908 87.3372462,55.3325908 C86.1041705,55.3325908 84.9292482,55.0936985 83.8132202,54.6151754 C82.6971922,54.1373908 81.8108149,53.4543138 81.1551994,52.5659446 C80.4988431,51.6779446 80.1710353,50.7168369 80.1710353,49.6818831 L80.1710353,49.3307446 L80.1710353,49.1549908 C80.2888239,49.0770831 80.7096031,49.0379446 81.4341138,49.0379446" id="Fill-18" fill="#FCD413"></path>
                <path d="M14.9408478,67.1364923 L14.9408478,70.2398769 C14.9408478,71.1965538 14.9504783,71.9966769 14.9701097,72.6406154 C15.1656832,72.7971692 15.4594138,72.8747077 15.8513014,72.8747077 C16.5361789,72.8747077 17.0847476,72.7971692 17.4958963,72.6406154 C17.8088879,72.4456615 18.1129898,72.1332923 18.4063499,71.7038769 C18.9545482,70.8646154 19.2286473,69.9958154 19.2286473,69.0982154 C19.2286473,68.4539077 19.1308606,67.8199385 18.9352872,67.1948308 C18.5433995,65.9265231 17.9659393,65.1651692 17.2021657,64.9115077 C16.810278,64.8528 16.4283913,64.8236308 16.0568758,64.8236308 C15.6846195,64.8236308 15.3323651,64.8627692 14.9993717,64.9406769 L14.9115859,64.9406769 L14.9115859,65.0577231 C14.9308469,65.5262769 14.9408478,66.2193231 14.9408478,67.1364923 M14.4708048,58.5873231 L17.2021657,58.6164923 L17.907045,58.6164923 C18.533769,58.7734154 19.1356759,59.0758154 19.7135065,59.5244308 C20.2905963,59.9737846 20.7561944,60.4907077 21.1084489,61.0763077 C21.9111149,62.3254154 22.498576,63.7602462 22.8708323,65.3796923 C23.0075114,65.7899077 23.0956676,66.4046769 23.1353009,67.2243692 C23.1152991,67.5171692 23.0956676,67.9709538 23.0764066,68.5857231 C23.0564048,69.2004923 23.0371438,69.6838154 23.0178828,70.0349538 C22.9586181,71.1282462 22.8952789,71.8552615 22.8267542,72.2163692 C22.757859,72.5774769 22.7189665,72.7580308 22.7089656,72.7580308 C22.6989647,72.7580308 22.6945198,72.768 22.6945198,72.7872 C22.0485348,74.6418462 20.8047174,76.7102769 18.9645491,78.9936 C17.2414286,79.0526769 14.6663783,79.0818462 11.240139,79.0818462 L11.2108771,79.1110154 C10.8775133,76.7298462 10.7115722,73.392 10.7115722,69.0982154 L10.770096,61.7494154 C10.770096,60.6760615 10.7600951,59.7688615 10.7408341,59.0267077 L10.8289903,58.9096615 C11.7490744,58.6947692 12.9628892,58.5873231 14.4708048,58.5873231" id="Fill-20" fill="#FCD413"></path>
                <path d="M29.6257833,75.0120738 L36.0874854,75.1878277 C36.5375265,75.1878277 36.9486752,75.1782277 37.3209315,75.1586585 L37.3209315,75.2169969 C37.3598239,75.6855508 37.3798258,76.2711508 37.3798258,76.9737969 C37.3798258,77.6760738 37.2816686,78.3694892 37.0860952,79.0525662 L28.744962,79.1400738 C27.3937274,79.1400738 26.1602812,79.0917046 25.0442532,78.9938585 L24.8972028,65.2629046 C24.8972028,63.0574892 24.9557266,60.9587815 25.0735152,58.9682585 C28.3823363,58.7925046 31.2311153,58.7046277 33.6202227,58.7046277 C36.0089597,58.7046277 37.2131439,58.7337969 37.2327753,58.7925046 C37.2912992,59.2023508 37.3209315,59.6413662 37.3209315,60.10992 L37.2327753,62.9496738 L37.2327753,62.9792123 C36.3708446,63.1741662 35.2355556,63.2716431 33.8257971,63.2716431 L32.29825,63.2716431 C31.2018534,63.2716431 30.2813988,63.2915815 29.5376271,63.33072 L29.4498413,63.33072 L29.420209,63.3598892 L29.3320528,65.9068431 C29.3320528,66.4145354 29.3805757,66.7169354 29.4791033,66.8144123 C30.5366074,66.87312 31.7404212,66.9022892 33.0912854,66.9022892 L33.0912854,66.9314585 C33.1698111,66.9901662 33.209074,67.4000123 33.209074,68.1613662 L33.1505501,71.00112 C32.739031,71.1181662 32.0786002,71.1768738 31.1677762,71.1768738 C30.2573226,71.1768738 29.7332006,71.2256123 29.5965214,71.3230892 C29.5179957,71.7333046 29.4791033,72.2454277 29.4791033,72.8601969 C29.4791033,73.4749662 29.5179957,74.1827815 29.5965214,74.9829046 L29.6257833,75.0120738 Z" id="Fill-22" fill="#FCD413"></path>
                <path d="M50.8016458,66.4633108 C51.2909498,66.4633108 51.7313604,66.4337723 52.1232481,66.3754338 C52.9648066,66.1993108 53.3863266,65.5553723 53.3863266,64.4432492 C53.3863266,63.7402338 53.141119,63.2133415 52.651815,62.8622031 C52.2406663,62.4914954 51.7265452,62.3057723 51.1098221,62.3057723 C50.4934695,62.3057723 49.7830341,62.4623262 48.9807385,62.7739569 C48.9999995,63.0475569 49.0144453,63.6335262 49.0248166,64.5307569 C49.0344471,65.4287262 49.0685243,66.0434954 49.1274186,66.3754338 L49.1566805,66.3754338 C49.7634027,66.4337723 50.311601,66.4633108 50.8016458,66.4633108 M58.8786807,79.0526031 L55.0601834,79.1696492 C54.5708794,79.1696492 54.227885,79.15008 54.0323116,79.1109415 L54.0030497,79.1109415 C52.5932911,75.8318031 51.2320555,73.3826954 49.9204541,71.7625108 L49.8615598,71.6742646 C49.822297,72.0069415 49.8030359,72.66528 49.8030359,73.6507569 C49.8030359,74.6366031 49.8715607,76.3586954 50.0086103,78.8181415 C49.4600416,79.0334031 48.3732756,79.1401108 46.7483121,79.1401108 L45.2507678,79.1401108 L44.8981429,79.1401108 C44.9762982,79.1401108 45.0155611,76.0614646 45.0155611,69.9034338 C45.0155611,63.7454031 44.9077735,60.00288 44.6921982,58.6754954 C46.9835188,58.3435569 48.7018241,58.1777723 49.847114,58.1777723 C50.992404,58.1777723 51.8487786,58.2069415 52.4169787,58.26528 C53.5522677,58.3239877 54.5901404,58.6562954 55.5302264,59.2610954 C57.3511336,60.4319262 58.330112,62.1791262 58.4671616,64.5015877 C58.4864226,64.5994338 58.4964235,64.6969108 58.4964235,64.7943877 C58.4964235,65.7706338 58.2030634,66.7169723 57.6156022,67.6341415 C56.7933048,69.2351262 55.5202254,70.0839877 53.7974753,70.1814646 L53.6507952,70.1814646 L53.6507952,70.2106338 C53.8459983,70.5617723 54.6490347,71.8064492 56.0587932,73.9435569 C57.4685518,76.0806646 58.4086377,77.7839262 58.8786807,79.0526031" id="Fill-24" fill="#FCD413"></path>
                <path d="M68.4235166,59.4659446 L70.9789354,59.2610215 C71.8204939,59.2610215 72.3983245,59.3588677 72.7113161,59.5538215 C72.7898418,61.4860062 72.8291046,63.7600985 72.8291046,66.37536 C72.8291046,68.9909908 72.6720532,71.7724062 72.3590616,74.7192369 C72.1827492,76.0469908 71.6834443,77.1491446 70.8611469,78.0279138 C69.862537,79.0816985 68.4235166,79.60896 66.543715,79.60896 C64.3309201,79.60896 62.578908,78.9746215 61.2865676,77.7059446 C60.4835312,76.9250215 60.062752,75.9687138 60.0234891,74.8366523 L60.1701692,61.9837292 C60.1701692,60.18816 60.1505378,59.2709908 60.1116453,59.2318523 L60.1409073,59.2318523 L62.3144394,59.1731446 C63.1756292,59.1731446 63.8316151,59.2418215 64.2823971,59.3780677 L64.2823971,59.4076062 C64.203501,61.0861292 64.164979,63.1157908 64.164979,65.49696 C64.164979,67.8784985 64.2920276,70.6403446 64.5464953,73.7824985 C64.8005926,74.6608985 65.3880538,75.1002831 66.3088787,75.1002831 C66.6026093,75.1002831 66.9059704,75.0220062 67.2193324,74.8658215 C67.7282678,74.6125292 68.0416298,74.2023138 68.1590479,73.6362831 C68.2372032,71.8602831 68.2960975,69.31296 68.3353603,65.9946831 C68.3742528,62.6767754 68.4035147,60.5008985 68.4235166,59.4659446" id="Fill-26" fill="#FCD413"></path>
                <path d="M78.8794357,70.7669538 L81.0525974,70.7669538 C80.5829248,66.6876923 80.2106686,64.6480615 79.9369398,64.6480615 C79.8580437,64.6480615 79.779518,64.7942769 79.7017331,65.0870769 C79.6232074,65.3798769 79.3491083,67.2732923 78.8794357,70.7669538 M78.0275059,58.6462154 C78.3016051,58.6070769 78.4871776,58.5974769 78.5853347,58.6166769 C78.6831215,58.6366154 78.9379596,58.6462154 79.3491083,58.6462154 C79.760257,58.6462154 80.5240305,58.5974769 81.6400585,58.4996308 L84.0484269,68.8639385 L86.251221,79.1112 L86.251221,79.1403692 C85.7615466,79.2378462 85.1940873,79.2869538 84.5477318,79.2869538 C83.9017468,79.2869538 83.1572343,79.1987077 82.3156759,79.0233231 L82.2864139,79.0233231 C82.1493644,78.6526154 81.9337891,77.8665231 81.6400585,76.6665231 C81.346328,75.4661538 81.1014908,74.6608615 80.9059173,74.2510154 C80.8273916,74.1923077 80.6414487,74.1631385 80.3477181,74.1631385 L79.0846397,74.2214769 C78.9279587,74.5925538 78.7323852,75.3830769 78.4975489,76.5930462 C78.2623422,77.8037538 78.0275059,78.6426462 77.7922993,79.1112 C77.6163572,79.1499692 77.4400448,79.1695385 77.2637324,79.1695385 L73.5926559,79.1112 C73.5730245,79.1112 73.5530227,79.1012308 73.5337617,79.0816615 C73.5530227,79.0233231 73.7493369,77.9204308 74.1212228,75.7733538 C74.4931087,73.6262769 75.0316764,70.9279385 75.7369261,67.6779692 C76.441435,64.4283692 77.2052085,61.4180308 78.0275059,58.6462154" id="Fill-28" fill="#FCD413"></path>
                <path d="M10.2014514,92.9808738 C10.1640406,92.7696738 10.1455204,92.4406892 10.1455204,91.9935508 L10.1829312,90.8197662 C10.4192491,90.7204431 10.8274346,90.6705969 11.4071172,90.6705969 C11.9864295,90.6705969 12.3568337,90.7078892 12.5190708,90.7824738 L12.48166,91.2480738 C12.4316554,92.2047508 12.4072087,92.7759508 12.4072087,92.9624123 L12.4072087,92.9997046 L12.3694275,92.9997046 L10.2573825,92.9808738 L10.2014514,92.9808738 Z" id="Fill-30" fill="#FCD413"></path>
                <path d="M18.7989414,89.3851938 L20.2753727,89.3479015 C20.6491106,89.3479015 20.8798724,89.3730092 20.9669174,89.4224862 C20.8420912,91.1490092 20.6680012,92.1237785 20.4435362,92.3475323 C20.2442587,92.6333169 19.9486761,92.8445169 19.5560476,92.9807631 C19.1634192,93.1173785 18.8674662,93.1919631 18.6681887,93.2045169 C18.4689112,93.2167015 18.2759306,93.2229785 18.0888764,93.2229785 L16.1075841,93.1672246 C15.4719705,93.0553477 14.9363659,92.7824862 14.5000297,92.3475323 C14.1885198,92.0743015 13.9581283,91.7047015 13.808485,91.2387323 C13.6592121,90.7731323 13.5843904,90.3045785 13.5843904,89.8323323 C13.5843904,88.5160246 13.5658702,87.5656246 13.5284594,86.9818708 C13.5284594,86.5343631 13.5499428,86.1714092 13.5936505,85.8919015 C13.6369878,85.6123938 13.752554,85.1623015 13.9396081,84.5412554 C14.1011044,84.1808862 14.4470619,83.9106092 14.97674,83.7307938 C15.5064181,83.5506092 15.9609041,83.4634708 16.3409388,83.4697477 C16.7209736,83.4763938 16.9980359,83.4789785 17.1728667,83.4789785 L17.7525494,83.4605169 C18.8859864,83.4605169 19.7271744,83.72784 20.2753727,84.2613785 C20.5746593,84.4603938 20.7676399,84.8144862 20.8550553,85.3236554 C20.9043191,85.6341785 20.9358035,85.8981785 20.9483972,86.1152862 C20.9606205,86.3327631 20.9732143,86.4911631 20.985808,86.5904862 C20.9980314,86.8637169 21.0046986,87.2052554 21.0046986,87.6151015 C20.8298678,87.6523938 20.5650288,87.6708554 20.2101815,87.6708554 C19.8549639,87.6708554 19.3286194,87.6217477 18.6307778,87.5220554 C18.5681795,87.0627323 18.4092761,86.7396554 18.1540676,86.5531938 C17.8988591,86.3667323 17.665134,86.2736862 17.4532628,86.2736862 C16.9172878,86.2736862 16.5250297,86.4291323 16.2757477,86.7396554 C16.200926,86.8016862 16.144995,86.9508554 16.1075841,87.1864246 C16.0701733,87.4227323 16.0449858,87.8200246 16.0327625,88.37904 L15.9957221,89.6274092 C15.9957221,89.9379323 16.1264748,90.1768246 16.3879802,90.3444554 C16.649856,90.5124554 16.9361784,90.5962708 17.2476884,90.5962708 C17.6214263,90.5962708 17.9077488,90.5279631 18.1073967,90.3913477 C18.3066741,90.2547323 18.4689112,89.9194708 18.593367,89.3851938 L18.7989414,89.3851938 Z" id="Fill-32" fill="#FCD413"></path>
                <path d="M25.4896643,90.5402215 C26.2497339,90.5402215 26.6982934,90.2669908 26.835343,89.7205292 C26.9101646,89.0621908 26.9475755,88.5530215 26.9475755,88.1926523 C26.9475755,87.8326523 26.9290552,87.5594215 26.8916444,87.37296 C26.8290461,86.9258215 26.6486592,86.6027446 26.3493726,86.4040985 C26.1626889,86.2922215 25.9634114,86.2364677 25.7515401,86.2364677 C25.5396689,86.2364677 25.3244641,86.2645292 25.1066664,86.3202831 C24.8884983,86.3760369 24.6984809,86.5037908 24.5366142,86.7020677 C24.4617926,86.7644677 24.4054911,86.9165908 24.3684507,87.1588062 C24.3310399,87.4010215 24.3058524,87.79536 24.293629,88.3418215 L24.2562182,89.5340677 C24.2562182,89.8693292 24.3836373,90.1211446 24.6392162,90.2887754 C24.8944247,90.4564062 25.1781544,90.5402215 25.4896643,90.5402215 M26.3493726,93.18576 L24.3684507,93.1300062 C23.732837,93.0181292 23.1972325,92.7452677 22.7608963,92.3103138 C22.4493863,92.0370831 22.2189949,91.6674831 22.0693516,91.2018831 C21.9200787,90.7359138 21.8419234,90.2669908 21.8359969,89.7951138 C21.8293296,89.3232369 21.8263664,88.8262523 21.8263664,88.3045292 C21.8263664,87.7828062 21.8234031,87.2983754 21.8171063,86.8512369 C21.810439,86.4040985 21.8234031,86.06256 21.8545171,85.8266215 C21.8856311,85.5906831 21.9200787,85.4045908 21.9571191,85.2676062 C21.9945299,85.1309908 22.0412008,84.9851446 22.0975023,84.8296985 C22.1534333,84.6746215 22.1875105,84.5660677 22.2004747,84.5036677 C22.3619709,84.1436677 22.7079285,83.87376 23.2376065,83.6932062 C23.7672846,83.5133908 24.2217706,83.4262523 24.6018054,83.4325292 C24.9818401,83.4388062 25.2589025,83.44176 25.4337333,83.44176 L26.0130455,83.4232985 C27.1346296,83.4232985 27.9754472,83.6965292 28.5362393,84.2429908 C28.972205,84.5287754 29.2211167,85.6468062 29.283715,87.5963446 C29.2963088,87.7455138 29.3026056,87.8573908 29.3026056,87.9319754 C29.2155606,90.1429292 29.0781407,91.4968985 28.8914569,91.9935138 C28.8288586,92.1423138 28.7666307,92.2482831 28.7044028,92.3103138 C28.5047549,92.5960985 28.2091723,92.8069292 27.8169142,92.9435446 C27.4239153,93.08016 27.1279623,93.1547446 26.9290552,93.1672985 C26.7294074,93.1794831 26.5364267,93.18576 26.3493726,93.18576" id="Fill-34" fill="#FCD413"></path>
                <path d="M31.713678,83.7211938 L32.5919064,83.6281477 C32.7041389,83.6281477 32.784887,83.6532554 32.8348916,83.7027323 C32.8600791,83.8640862 32.8723025,84.0568246 32.8723025,84.2802092 L32.8723025,84.6900554 C33.1212141,84.55344 33.2771543,84.4603938 33.3397526,84.4105477 C33.9249913,83.9759631 34.5731987,83.7584862 35.2832637,83.7584862 C35.9933286,83.7584862 36.5978283,83.9575015 37.0963924,84.3547938 C37.1712141,84.4293785 37.233442,84.5349785 37.2830762,84.6712246 C37.5571753,84.51024 37.7064482,84.4231015 37.7316357,84.4105477 C38.3172448,83.9759631 38.9654523,83.7584862 39.6755172,83.7584862 C40.3859525,83.7584862 40.9900819,83.9575015 41.488646,84.3547938 C41.7249639,84.5659938 41.8627543,85.1744862 41.8997947,86.18064 C41.912018,86.6403323 41.9186853,87.1557785 41.9186853,87.7269785 L41.8627543,91.8631015 C41.8627543,92.3227938 41.8683103,92.68944 41.8812745,92.9623015 C41.5449474,93.0117785 40.7659873,93.0368862 39.5447645,93.0368862 C39.5199474,92.6643323 39.5073537,91.9720246 39.5073537,90.9595938 C39.5073537,89.9471631 39.5006864,89.3076554 39.4888335,89.0403323 C39.4762397,88.7733785 39.463646,88.5747323 39.4514226,88.4443938 C39.4388289,88.3136862 39.4295688,88.2114092 39.4232719,88.1368246 C39.4166046,88.06224 39.4047517,87.9629169 39.3858611,87.8384862 C39.3673409,87.7147938 39.3488207,87.6151015 39.32993,87.5405169 C39.3110394,87.4663015 39.2891856,87.38544 39.2647389,87.2983015 C39.1273189,86.9135631 38.8095121,86.7208246 38.3113184,86.7208246 C38.0372192,86.7208246 37.7753434,86.81424 37.5264318,87.0003323 L37.5264318,87.5405169 L37.4701303,91.8442708 C37.4701303,92.3287015 37.4760568,92.7016246 37.4890209,92.9623015 C37.1526939,93.0117785 36.3733634,93.0368862 35.152511,93.0368862 C35.1273235,92.6643323 35.1151001,91.9720246 35.1151001,90.9595938 C35.1151001,89.9471631 35.1088033,89.3076554 35.0965799,89.0403323 C35.0839862,88.7733785 35.0713924,88.5747323 35.0591691,88.4443938 C35.0465754,88.3136862 35.0373153,88.2114092 35.0310184,88.1368246 C35.0247215,88.06224 35.0124982,87.9629169 34.993978,87.8384862 C34.9750873,87.7147938 34.9565671,87.6151015 34.9376765,87.5405169 C34.9187859,87.4663015 34.8910056,87.38544 34.8535948,87.2983015 C34.7287685,86.9135631 34.4050352,86.7208246 33.881654,86.7208246 C33.6449657,86.7208246 33.4049438,86.8112862 33.1619586,86.9911015 C32.9189734,87.1712862 32.784887,87.4663015 32.76007,87.8761477 C32.7474762,88.0375015 32.7415498,88.2365169 32.7415498,88.4720862 L32.8163714,91.5647631 C32.8163714,92.1610708 32.7911839,92.5960246 32.7415498,92.8692554 L32.7415498,92.9434708 C32.6296877,93.0180554 32.3863321,93.0553477 32.0125942,93.0553477 L30.9847224,93.0368862 C30.7728512,93.0368862 30.5857971,93.0427938 30.4239304,93.0553477 L30.3679994,85.7892554 C30.3679994,84.6343015 30.3802227,83.9449477 30.4054102,83.7211938 C30.6295048,83.7463015 30.8473025,83.7584862 31.0595441,83.7584862 L31.713678,83.7211938 Z" id="Fill-36" fill="#FCD413"></path>
            </g>
        </g>
    </g>
</svg>